<svg width="15" height="17" fill="none" xmlns="http://www.w3.org/2000/svg"><path d="M14.5 7H.5C.2 7 0 6.8 0 6.5v-2C0 3.7.7 3 1.5 3h12c.8 0 1.5.7 1.5 1.5v2c0 .2-.2.5-.5.5zM1 6h13V4.5c0-.3-.2-.5-.5-.5h-12c-.3 0-.5.2-.5.5V6z" fill="#2F80ED"/><path d="M11.5 17h-8C2.1 17 1 15.9 1 14.5v-8c0-.3.2-.5.5-.5s.5.2.5.5v8c0 .8.7 1.5 1.5 1.5h8c.8 0 1.5-.7 1.5-1.5v-8c0-.3.2-.5.5-.5s.5.2.5.5v8c0 1.4-1.1 2.5-2.5 2.5zM10 3.5H9v-2c0-.3-.2-.5-.5-.5h-2c-.3 0-.5.2-.5.5v2H5v-2C5 .7 5.7 0 6.5 0h2c.8 0 1.5.7 1.5 1.5v2z" fill="#2F80ED"/><path d="M4.5 14c-.3 0-.5-.2-.5-.5v-4c0-.3.2-.5.5-.5s.5.2.5.5v4c0 .3-.2.5-.5.5zm3 0c-.3 0-.5-.2-.5-.5v-4c0-.3.2-.5.5-.5s.5.2.5.5v4c0 .3-.2.5-.5.5zm3 0c-.3 0-.5-.2-.5-.5v-4c0-.3.2-.5.5-.5s.5.2.5.5v4c0 .3-.2.5-.5.5z" fill="#2F80ED"/></svg>