<svg width="82" height="86" fill="none" xmlns="http://www.w3.org/2000/svg"><path d="M57.152 37.314a4.155 4.155 0 0 0 4.157-4.153 4.155 4.155 0 0 0-4.157-4.152 4.155 4.155 0 0 0-4.157 4.152 4.155 4.155 0 0 0 4.157 4.153z" fill="#282828"/><path d="M61.014 20.476h-41.11c-4.193 0-7.604 3.405-7.604 7.593v29.455c0 4.187 3.411 7.592 7.604 7.592h41.112c4.193 0 7.604-3.405 7.604-7.592V28.069c-.002-4.188-3.414-7.593-7.606-7.593zm3.458 30.057l-13.095-8.88a1.383 1.383 0 0 0-1.62.047l-8.548 6.558c1.855 3.973 2.67 8.019 2.67 8.019L28.875 38.743a1.39 1.39 0 0 0-.982-.463 1.321 1.321 0 0 0-1.014.387L16.445 48.76V28.069a3.46 3.46 0 0 1 3.459-3.453h41.112a3.46 3.46 0 0 1 3.459 3.453v22.464h-.002z" fill="#282828"/></svg>