<svg width="14" height="17" fill="none" xmlns="http://www.w3.org/2000/svg"><path d="M5.67.265c-1.382.41-2.764.818-4.147 1.222-.12.035-.126.12-.126.236-.002 1.748-.006 3.495-.01 5.243l-.013 7.592c0 .152.029.227.157.28 1.56.632 3.117 1.27 4.673 1.911.042.017.086.03.15.05.005-.121.013-.229.014-.335l.043-5.439c.026-3.078.053-6.157.081-9.235.006-.597.015-1.193.023-1.79h-.027c-.272.088-.544.183-.818.265zm.246 8.607c-.134.164-.328.153-.447-.035a.785.785 0 0 1-.069-.71c.056-.157.146-.275.345-.285.037.025.117.057.17.12.19.22.185.685 0 .91zM9 1.933c.12 0 .164.035.162.19-.006.998-.002 1.995-.002 2.992v.337c.217 0 .437.004.651-.007.021 0 .055-.101.055-.156.004-.618.003-1.238.003-1.856v-2.17c0-.098 0-.176-.118-.175-.824.006-1.648.003-2.473.004a.53.53 0 0 0-.07.008v.836h.163c.542 0 1.085.004 1.629-.003zm.723 9.42c-.184.009-.372.002-.562.002v2.984H7.099v.863c.055.003.083.008.123.008.833 0 1.664-.003 2.496.004.123 0 .151-.045.15-.185a536.515 536.515 0 0 1 0-3.498c.003-.138-.033-.182-.145-.178zM12.522 8.4l-2.81-1.964v1.308H7.784v1.312H9.71v1.308L12.522 8.4z" fill="#fff"/></svg>