<svg width="19" height="15" fill="none" xmlns="http://www.w3.org/2000/svg"><path d="M16.05 8.886c-.1 0-.2 0-.3-.1l-2.7-2.4c-.2-.2-.2-.5 0-.7.2-.2.5-.2.7 0l2.3 2.1 2.1-2.3c.2-.2.5-.2.7 0 .2.2.2.5 0 .7l-2.4 2.7c-.2-.1-.3 0-.4 0zm-15.6.3c-.1 0-.2 0-.3-.1-.2-.2-.2-.5 0-.7l2.4-2.7c.1-.1.2-.2.3-.2.1 0 .3 0 .4.1l2.7 2.4c.2.2.2.5 0 .7-.2.2-.5.2-.7 0l-2.3-2.1-2.1 2.3c-.1.3-.3.3-.4.3z" fill="#BB6BD9"/><path d="M16.05 8.686s-.1 0 0 0c-.3 0-.5-.3-.5-.6.2-1.6-.2-3.3-1.1-4.6-1-1.3-2.4-2.2-4.1-2.4-1.6-.2-3.3.2-4.6 1.1-.2.2-.5.1-.7-.1-.2-.2-.1-.5.1-.7 1.5-1.1 3.4-1.6 5.3-1.3 1.9.3 3.6 1.3 4.7 2.8 1.1 1.5 1.6 3.4 1.3 5.3.1.3-.2.5-.4.5zm-6.6 5.7c-.4 0-.7 0-1.1-.1-1.9-.3-3.6-1.3-4.7-2.8-1.1-1.5-1.6-3.4-1.3-5.3 0-.3.3-.5.6-.4.3 0 .5.3.4.6-.2 1.6.2 3.3 1.1 4.6 1 1.3 2.4 2.2 4.1 2.4 1.6.2 3.3-.2 4.6-1.1.2-.2.5-.1.7.1.2.2.1.5-.1.7-1.3.8-2.8 1.3-4.3 1.3z" fill="#BB6BD9"/></svg>