<svg width="15" height="17" viewBox="0 0 15 17" fill="none" xmlns="http://www.w3.org/2000/svg">
<path d="M14.5 7H0.5C0.2 7 0 6.8 0 6.5V4.5C0 3.7 0.7 3 1.5 3H13.5C14.3 3 15 3.7 15 4.5V6.5C15 6.7 14.8 7 14.5 7ZM1 6H14V4.5C14 4.2 13.8 4 13.5 4H1.5C1.2 4 1 4.2 1 4.5V6Z" fill="#2F80ED"/>
<path d="M11.5 17H3.5C2.1 17 1 15.9 1 14.5V6.5C1 6.2 1.2 6 1.5 6C1.8 6 2 6.2 2 6.5V14.5C2 15.3 2.7 16 3.5 16H11.5C12.3 16 13 15.3 13 14.5V6.5C13 6.2 13.2 6 13.5 6C13.8 6 14 6.2 14 6.5V14.5C14 15.9 12.9 17 11.5 17Z" fill="#2F80ED"/>
<path d="M10 3.5H9V1.5C9 1.2 8.8 1 8.5 1H6.5C6.2 1 6 1.2 6 1.5V3.5H5V1.5C5 0.7 5.7 0 6.5 0H8.5C9.3 0 10 0.7 10 1.5V3.5Z" fill="#2F80ED"/>
<path d="M4.5 14C4.2 14 4 13.8 4 13.5V9.5C4 9.2 4.2 9 4.5 9C4.8 9 5 9.2 5 9.5V13.5C5 13.8 4.8 14 4.5 14Z" fill="#2F80ED"/>
<path d="M7.5 14C7.2 14 7 13.8 7 13.5V9.5C7 9.2 7.2 9 7.5 9C7.8 9 8 9.2 8 9.5V13.5C8 13.8 7.8 14 7.5 14Z" fill="#2F80ED"/>
<path d="M10.5 14C10.2 14 10 13.8 10 13.5V9.5C10 9.2 10.2 9 10.5 9C10.8 9 11 9.2 11 9.5V13.5C11 13.8 10.8 14 10.5 14Z" fill="#2F80ED"/>
</svg>
