<svg width="10" height="5" viewBox="0 0 10 5" fill="none" xmlns="http://www.w3.org/2000/svg">
<path d="M0.649335 0.0319608C0.778052 0.0318693 0.903073 0.0785783 1.00437 0.164607L5.00001 3.54983L8.99564 0.16471C9.11618 0.0625935 9.26922 0.0165315 9.42111 0.0366588C9.57299 0.0567856 9.71128 0.141452 9.80554 0.272032C9.8998 0.402613 9.94232 0.568411 9.92374 0.732953C9.90516 0.897494 9.82701 1.0473 9.70647 1.14942L5.35541 4.83554C5.25392 4.92146 5.12881 4.96814 5 4.96814C4.87119 4.96814 4.74608 4.92146 4.64459 4.83554L0.293546 1.14931C0.198912 1.06915 0.129738 0.958986 0.0956732 0.834188C0.0616089 0.709391 0.0643555 0.576185 0.103527 0.453158C0.142699 0.330132 0.216343 0.223421 0.314185 0.147913C0.412027 0.0724066 0.529188 0.0318707 0.649316 0.0319608L0.649335 0.0319608Z" fill="#2F80ED"/>
</svg>
