<svg width="82" height="86" viewBox="0 0 82 86" fill="none" xmlns="http://www.w3.org/2000/svg">
<path d="M57.152 37.3139C59.4481 37.3139 61.3094 35.4547 61.3094 33.1613C61.3094 30.8679 59.4481 29.0087 57.152 29.0087C54.856 29.0087 52.9946 30.8679 52.9946 33.1613C52.9946 35.4547 54.856 37.3139 57.152 37.3139Z" fill="#282828"/>
<path d="M61.0142 20.4762H19.9035C15.7112 20.4762 12.3 23.8814 12.3 28.0688V57.5238C12.3 61.7111 15.7112 65.1163 19.9035 65.1163H61.0162C65.2085 65.1163 68.6197 61.7111 68.6197 57.5238V28.0688C68.6176 23.8814 65.2064 20.4762 61.0142 20.4762ZM64.4725 50.5332L51.3771 41.6527C50.8831 41.3169 50.2291 41.3373 49.7576 41.6998L41.2091 48.2583C43.0644 52.2307 43.8782 56.2768 43.8782 56.2768L28.8763 38.743C28.6242 38.4625 28.2716 38.2946 27.8944 38.2802C27.5069 38.2536 27.1502 38.4051 26.8796 38.6672L16.4451 48.76V28.0688C16.4451 26.1665 17.997 24.6165 19.9035 24.6165H61.0162C62.9227 24.6165 64.4746 26.1665 64.4746 28.0688V50.5332H64.4725Z" fill="#282828"/>
</svg>
