<svg width="14" height="17" viewBox="0 0 14 17" fill="none" xmlns="http://www.w3.org/2000/svg">
<path d="M5.66952 0.264797C4.28786 0.675172 2.90566 1.08259 1.52292 1.48706C1.40275 1.5225 1.39705 1.60781 1.39705 1.72331C1.39452 3.47069 1.391 5.21817 1.38647 6.96576C1.3825 9.49692 1.37843 12.0276 1.37427 14.5579C1.37427 14.7098 1.40302 14.785 1.53133 14.8372C3.09022 15.4698 4.64784 16.1071 6.20419 16.7491C6.24624 16.7662 6.28964 16.7783 6.35312 16.7997C6.35854 16.6776 6.36695 16.57 6.36777 16.464C6.38259 14.651 6.39697 12.838 6.4109 11.025C6.4373 7.94675 6.46443 4.8685 6.49228 1.79025C6.4977 1.19339 6.50747 0.596859 6.51534 0H6.48821C6.21586 0.0882656 5.94405 0.183094 5.66952 0.264797ZM5.91583 8.87217C5.7821 9.03623 5.5876 9.02541 5.46851 8.83706C5.33098 8.62017 5.31199 8.37769 5.40042 8.12766C5.45631 7.97016 5.54582 7.85203 5.74493 7.84153C5.7821 7.8668 5.86158 7.89862 5.91583 7.96195C6.10572 8.1818 6.1003 8.64741 5.91583 8.87217Z" fill="white"/>
<path d="M8.99959 1.93298C9.12058 1.93298 9.16398 1.96776 9.16235 2.12395C9.15638 3.1208 9.16045 4.11797 9.16045 5.11514V5.4518C9.37747 5.4518 9.59746 5.45606 9.81149 5.44458C9.83211 5.44458 9.86575 5.34384 9.86575 5.28937C9.86982 4.67053 9.86873 4.05136 9.86873 3.43251V1.26328C9.86873 1.16484 9.86873 1.0874 9.751 1.08839C8.92689 1.09397 8.10251 1.09134 7.2784 1.092C7.25505 1.09319 7.23178 1.09592 7.20868 1.1002V1.93594H7.37144C7.91316 1.93594 8.4557 1.93987 8.99959 1.93298Z" fill="white"/>
<path d="M9.72307 11.3531C9.53915 11.362 9.35089 11.3554 9.161 11.3554V14.3391H7.09937V15.2017C7.15362 15.2047 7.18237 15.2099 7.22198 15.2099C8.0545 15.2099 8.88621 15.2069 9.71764 15.2138C9.84053 15.2138 9.86901 15.1686 9.86847 15.0288C9.86467 13.8628 9.86467 12.697 9.86847 11.5313C9.87091 11.3935 9.83456 11.3492 9.72307 11.3531Z" fill="white"/>
<path d="M12.5223 8.39999L9.7114 6.43649V7.74374H7.7854V9.05624H9.7114V10.3635L12.5223 8.39999Z" fill="white"/>
</svg>
