<svg width="19" height="15" viewBox="0 0 19 15" fill="none" xmlns="http://www.w3.org/2000/svg">
<path d="M16.05 8.88576C15.95 8.88576 15.85 8.88576 15.75 8.78576L13.05 6.38576C12.85 6.18576 12.85 5.88576 13.05 5.68576C13.25 5.48576 13.55 5.48576 13.75 5.68576L16.05 7.78576L18.15 5.48575C18.35 5.28575 18.65 5.28575 18.85 5.48575C19.05 5.68575 19.05 5.98576 18.85 6.18576L16.45 8.88576C16.25 8.78576 16.15 8.88576 16.05 8.88576Z" fill="#BB6BD9"/>
<path d="M0.45 9.18575C0.35 9.18575 0.25 9.18575 0.15 9.08575C-0.05 8.88575 -0.05 8.58575 0.15 8.38575L2.55 5.68575C2.65 5.58575 2.75 5.48575 2.85 5.48575C2.95 5.48575 3.15 5.48575 3.25 5.58575L5.95 7.98575C6.15 8.18575 6.15 8.48575 5.95 8.68575C5.75 8.88575 5.45 8.88575 5.25 8.68575L2.95 6.58575L0.85 8.88575C0.75 9.18575 0.55 9.18575 0.45 9.18575Z" fill="#BB6BD9"/>
<path d="M16.05 8.68574C16.05 8.68574 15.95 8.68574 16.05 8.68574C15.75 8.68574 15.55 8.38574 15.55 8.08574C15.75 6.48574 15.35 4.78574 14.45 3.48574C13.45 2.18574 12.05 1.28574 10.35 1.08574C8.75 0.885742 7.04999 1.28574 5.75 2.18574C5.55 2.38574 5.25 2.28574 5.05 2.08574C4.85 1.88574 4.95 1.58574 5.15 1.38574C6.65 0.285742 8.55 -0.214258 10.45 0.085742C12.35 0.385742 14.05 1.38574 15.15 2.88574C16.25 4.38574 16.75 6.28574 16.45 8.18574C16.55 8.48574 16.25 8.68574 16.05 8.68574Z" fill="#BB6BD9"/>
<path d="M9.44999 14.3857C9.04999 14.3857 8.74999 14.3857 8.34999 14.2857C6.44999 13.9857 4.74999 12.9857 3.64999 11.4857C2.54999 9.98575 2.04999 8.08575 2.34999 6.18575C2.34999 5.88575 2.64999 5.68575 2.94999 5.78575C3.24999 5.78575 3.44999 6.08575 3.34999 6.38575C3.14999 7.98575 3.54999 9.68575 4.44999 10.9857C5.44999 12.2857 6.84999 13.1857 8.54999 13.3857C10.15 13.5857 11.85 13.1857 13.15 12.2857C13.35 12.0857 13.65 12.1857 13.85 12.3857C14.05 12.5857 13.95 12.8857 13.75 13.0857C12.45 13.8857 10.95 14.3857 9.44999 14.3857Z" fill="#BB6BD9"/>
</svg>
