<svg width="15" height="15" viewBox="0 0 15 15" fill="none" xmlns="http://www.w3.org/2000/svg">
<path d="M14.6861 13.1711L10.7464 9.23143C11.4011 8.28214 11.7857 7.1325 11.7857 5.89286C11.7857 2.63786 9.14786 0 5.89286 0C2.63786 0 0 2.63786 0 5.89286C0 9.14786 2.63786 11.7857 5.89286 11.7857C7.1325 11.7857 8.28214 11.4011 9.23143 10.7464L13.1711 14.6861C13.59 15.105 14.2682 15.105 14.6861 14.6861C15.105 14.2682 15.105 13.5889 14.6861 13.1711ZM1.60714 5.89286C1.60714 3.52607 3.52607 1.60714 5.89286 1.60714C8.25964 1.60714 10.1786 3.52607 10.1786 5.89286C10.1786 8.25964 8.25964 10.1786 5.89286 10.1786C3.52607 10.1786 1.60714 8.25964 1.60714 5.89286Z" fill="#E0E0E0"/>
</svg>
